<svg width="80" height="106" viewBox="0 0 80 106" fill="none" xmlns="http://www.w3.org/2000/svg">
<g opacity="0.3" clip-path="url(#clip0_162_4009)">
<ellipse rx="2.33738" ry="2.31353" transform="matrix(-1 0 0 1 74.9927 4.55865)" fill="white"/>
<ellipse rx="2.33738" ry="2.31353" transform="matrix(-1 0 0 1 74.9927 18.4385)" fill="white"/>
<ellipse rx="2.33738" ry="2.31353" transform="matrix(-1 0 0 1 74.9927 32.3204)" fill="white"/>
<ellipse rx="2.33738" ry="2.31353" transform="matrix(-1 0 0 1 74.9927 46.2012)" fill="white"/>
<ellipse rx="2.33738" ry="2.31353" transform="matrix(-1 0 0 1 74.9927 60.0831)" fill="white"/>
<ellipse rx="2.33738" ry="2.31353" transform="matrix(-1 0 0 1 74.9927 73.9639)" fill="white"/>
<ellipse rx="2.33738" ry="2.31353" transform="matrix(-1 0 0 1 74.9927 87.8448)" fill="white"/>
<ellipse rx="2.33738" ry="2.31353" transform="matrix(-1 0 0 1 74.9927 101.727)" fill="white"/>
<ellipse rx="2.33738" ry="2.31353" transform="matrix(-1 0 0 1 46.9448 4.55865)" fill="white"/>
<ellipse rx="2.33738" ry="2.31353" transform="matrix(-1 0 0 1 46.9448 18.4385)" fill="white"/>
<ellipse rx="2.33738" ry="2.31353" transform="matrix(-1 0 0 1 46.9448 32.3204)" fill="white"/>
<ellipse rx="2.33738" ry="2.31353" transform="matrix(-1 0 0 1 46.9448 46.2012)" fill="white"/>
<ellipse rx="2.33738" ry="2.31353" transform="matrix(-1 0 0 1 46.9448 60.0831)" fill="white"/>
<ellipse rx="2.33738" ry="2.31353" transform="matrix(-1 0 0 1 46.9448 73.9639)" fill="white"/>
<ellipse rx="2.33738" ry="2.31353" transform="matrix(-1 0 0 1 46.9448 87.8448)" fill="white"/>
<ellipse rx="2.33738" ry="2.31353" transform="matrix(-1 0 0 1 46.9448 101.727)" fill="white"/>
<ellipse rx="2.33738" ry="2.31353" transform="matrix(-1 0 0 1 18.896 4.55865)" fill="white"/>
<ellipse rx="2.33738" ry="2.31353" transform="matrix(-1 0 0 1 18.896 18.4385)" fill="white"/>
<ellipse rx="2.33738" ry="2.31353" transform="matrix(-1 0 0 1 18.896 32.3204)" fill="white"/>
<ellipse rx="2.33738" ry="2.31353" transform="matrix(-1 0 0 1 18.896 46.2012)" fill="white"/>
<ellipse rx="2.33738" ry="2.31353" transform="matrix(-1 0 0 1 18.896 60.0831)" fill="white"/>
<ellipse rx="2.33738" ry="2.31353" transform="matrix(-1 0 0 1 18.896 73.9639)" fill="white"/>
<ellipse rx="2.33738" ry="2.31353" transform="matrix(-1 0 0 1 18.896 87.8448)" fill="white"/>
<ellipse rx="2.33738" ry="2.31353" transform="matrix(-1 0 0 1 18.896 101.727)" fill="white"/>
<ellipse rx="2.33738" ry="2.31353" transform="matrix(-1 0 0 1 60.9693 4.55865)" fill="white"/>
<ellipse rx="2.33738" ry="2.31353" transform="matrix(-1 0 0 1 60.9693 18.4385)" fill="white"/>
<ellipse rx="2.33738" ry="2.31353" transform="matrix(-1 0 0 1 60.9693 32.3204)" fill="white"/>
<ellipse rx="2.33738" ry="2.31353" transform="matrix(-1 0 0 1 60.9693 46.2012)" fill="white"/>
<ellipse rx="2.33738" ry="2.31353" transform="matrix(-1 0 0 1 60.9693 60.0831)" fill="white"/>
<ellipse rx="2.33738" ry="2.31353" transform="matrix(-1 0 0 1 60.9693 73.9639)" fill="white"/>
<ellipse rx="2.33738" ry="2.31353" transform="matrix(-1 0 0 1 60.9693 87.8448)" fill="white"/>
<ellipse rx="2.33738" ry="2.31353" transform="matrix(-1 0 0 1 60.9693 101.727)" fill="white"/>
<ellipse rx="2.33738" ry="2.31353" transform="matrix(-1 0 0 1 32.9209 4.55865)" fill="white"/>
<ellipse rx="2.33738" ry="2.31353" transform="matrix(-1 0 0 1 32.9209 18.4385)" fill="white"/>
<ellipse rx="2.33738" ry="2.31353" transform="matrix(-1 0 0 1 32.9209 32.3204)" fill="white"/>
<ellipse rx="2.33738" ry="2.31353" transform="matrix(-1 0 0 1 32.9209 46.2012)" fill="white"/>
<ellipse rx="2.33738" ry="2.31353" transform="matrix(-1 0 0 1 32.9209 60.0831)" fill="white"/>
<ellipse rx="2.33738" ry="2.31353" transform="matrix(-1 0 0 1 32.9209 73.9639)" fill="white"/>
<ellipse rx="2.33738" ry="2.31353" transform="matrix(-1 0 0 1 32.9209 87.8448)" fill="white"/>
<ellipse rx="2.33738" ry="2.31353" transform="matrix(-1 0 0 1 32.9209 101.727)" fill="white"/>
<ellipse rx="2.33738" ry="2.31353" transform="matrix(-1 0 0 1 4.87209 4.55865)" fill="white"/>
<ellipse rx="2.33738" ry="2.31353" transform="matrix(-1 0 0 1 4.87209 18.4385)" fill="white"/>
<ellipse rx="2.33738" ry="2.31353" transform="matrix(-1 0 0 1 4.87209 32.3204)" fill="white"/>
<ellipse rx="2.33738" ry="2.31353" transform="matrix(-1 0 0 1 4.87209 46.2012)" fill="white"/>
<ellipse rx="2.33738" ry="2.31353" transform="matrix(-1 0 0 1 4.87209 60.0831)" fill="white"/>
<ellipse rx="2.33738" ry="2.31353" transform="matrix(-1 0 0 1 4.87209 73.9639)" fill="white"/>
<ellipse rx="2.33738" ry="2.31353" transform="matrix(-1 0 0 1 4.87209 87.8448)" fill="white"/>
<ellipse rx="2.33738" ry="2.31353" transform="matrix(-1 0 0 1 4.87209 101.727)" fill="white"/>
</g>
<defs>
<clipPath id="clip0_162_4009">
<rect width="129" height="106" fill="white" transform="translate(-49)"/>
</clipPath>
</defs>
</svg>
