<svg width="20" height="20" viewBox="0 0 20 20" fill="none" xmlns="http://www.w3.org/2000/svg">
<g opacity="1">
<g clip-path="url(#clip0_159_3781)">
<path d="M2.5 16.875V4.375C2.5 4.20924 2.56585 4.05027 2.68306 3.93306C2.80027 3.81585 2.95924 3.75 3.125 3.75H16.875C17.0408 3.75 17.1997 3.81585 17.3169 3.93306C17.4342 4.05027 17.5 4.20924 17.5 4.375V16.875L15 15.625L12.5 16.875L10 15.625L7.5 16.875L5 15.625L2.5 16.875Z" stroke="#01375C" stroke-width="1.25" stroke-linecap="round" stroke-linejoin="round"/>
<path d="M5.625 12.5L8.125 7.5L10.625 12.5" stroke="#01375C" stroke-width="1.25" stroke-linecap="round" stroke-linejoin="round"/>
<path d="M6.25 11.25H10" stroke="#01375C" stroke-width="1.25" stroke-linecap="round" stroke-linejoin="round"/>
<path d="M11.875 10H15" stroke="#01375C" stroke-width="1.25" stroke-linecap="round" stroke-linejoin="round"/>
<path d="M13.4375 8.4375V11.5625" stroke="#01375C" stroke-width="1.25" stroke-linecap="round" stroke-linejoin="round"/>
</g>
</g>
<defs>
<clipPath id="clip0_159_3781">
<rect width="20" height="20" fill="white"/>
</clipPath>
</defs>
</svg>
