<svg width="194" height="46" viewBox="0 0 194 46" fill="none" xmlns="http://www.w3.org/2000/svg">
<g clip-path="url(#clip0_386_375)">
<path d="M83.0781 26.6079C84.9645 26.6079 86.2614 27.4248 86.9491 28.5918V26.783H91.5471V39.8147H86.9491V38.0058C86.2614 39.1728 84.9252 39.9897 83.0781 39.9897C79.9539 39.9897 77.478 37.4612 77.478 33.2988C77.478 29.1365 79.9539 26.6079 83.0781 26.6079ZM84.5519 30.5758C83.2353 30.5758 82.1546 31.5094 82.1546 33.2794C82.1546 35.0299 83.2353 36.0024 84.5519 36.0024C85.8487 36.0024 86.9491 35.0493 86.9491 33.2794C86.9491 31.5288 85.8487 30.5758 84.5519 30.5758Z" fill="white"/>
<path d="M100.095 26.6079C103.435 26.6079 105.872 28.4946 106.52 31.7622H101.647C101.392 30.9648 100.881 30.4785 99.9966 30.4785C98.8766 30.4785 98.1103 31.4121 98.1103 33.2599C98.1103 35.1466 98.857 36.0608 99.9966 36.0608C100.861 36.0608 101.372 35.594 101.647 34.777H106.52C105.872 38.0058 103.416 39.9314 100.095 39.9314C96.1846 39.9314 93.4337 37.4028 93.4337 33.2405C93.414 29.1364 96.165 26.6079 100.095 26.6079Z" fill="white"/>
<path d="M113.28 26.6079C115.166 26.6079 116.463 27.4248 117.151 28.5918V26.783H121.749V39.8147H117.151V38.0058C116.463 39.1728 115.127 39.9897 113.28 39.9897C110.156 39.9897 107.68 37.4612 107.68 33.2988C107.68 29.1365 110.156 26.6079 113.28 26.6079ZM114.754 30.5758C113.437 30.5758 112.356 31.5094 112.356 33.2794C112.356 35.0299 113.437 36.0024 114.754 36.0024C116.05 36.0024 117.151 35.0493 117.151 33.2794C117.151 31.5288 116.05 30.5758 114.754 30.5758Z" fill="white"/>
<path d="M129.255 26.6078C130.984 26.6078 132.359 27.3664 133.086 28.5529V22.6011H137.704V39.7952H133.086V37.9863C132.398 39.1533 131.082 39.9702 129.235 39.9702C126.111 39.9702 123.635 37.4417 123.635 33.2793C123.635 29.1169 126.111 26.6078 129.255 26.6078ZM130.709 30.5757C129.392 30.5757 128.311 31.5093 128.311 33.2793C128.311 35.0298 129.392 36.0023 130.709 36.0023C132.005 36.0023 133.106 35.0493 133.106 33.2793C133.106 31.5288 132.005 30.5757 130.709 30.5757Z" fill="white"/>
<path d="M146.271 39.9507C142.381 39.9507 139.59 37.4222 139.59 33.2598C139.59 29.1169 142.341 26.5884 146.271 26.5884C150.162 26.5884 152.913 29.078 152.913 33.1237C152.913 33.4738 152.893 33.8433 152.834 34.1935H144.129C144.228 35.7106 145.053 36.3135 146.075 36.3135C146.959 36.3135 147.45 35.8273 147.725 35.2827H152.638C152.009 37.9668 149.553 39.9507 146.271 39.9507ZM144.149 31.9956H148.216C148.216 30.8285 147.293 30.2061 146.252 30.2061C145.131 30.2061 144.365 30.8091 144.149 31.9956Z" fill="white"/>
<path d="M172.72 32.8127C172.72 31.3928 171.855 30.6148 170.539 30.6148C169.202 30.6148 168.358 31.4123 168.358 32.8127V39.7954H163.76V32.8127C163.76 31.3928 162.915 30.6148 161.598 30.6148C160.242 30.6148 159.397 31.4123 159.397 32.8127V39.7954H154.799V26.7637H159.397V28.4753C160.144 27.425 161.441 26.647 163.229 26.647C165.194 26.647 166.746 27.5222 167.611 29.0394C168.495 27.7167 170.047 26.647 171.993 26.647C175.333 26.647 177.318 28.7865 177.318 32.1903V39.7759H172.72V32.8127Z" fill="white"/>
<path d="M188.95 26.7637H194L185.649 46H180.658L183.802 39.2313L178.398 26.7637H183.507L186.278 34.1548L188.95 26.7637Z" fill="white"/>
<path d="M83.5695 20.7922C80.4452 20.7922 78.2248 19.0611 78.1855 16.5131H80.347C80.4845 17.7968 81.4081 19.0806 83.5695 19.0806C85.5345 19.0806 86.6938 17.9719 86.6938 16.5131C86.6938 12.3508 78.2641 15.0154 78.2641 9.27761C78.2641 6.72961 80.347 4.99854 83.432 4.99854C86.3991 4.99854 88.3444 6.61291 88.5998 8.9664H86.3598C86.2222 7.91608 85.2397 6.74906 83.3337 6.72961C81.6635 6.69071 80.3273 7.54653 80.3273 9.21925C80.3273 13.2066 88.7374 10.7169 88.7374 16.4353C88.757 18.6332 86.9492 20.7922 83.5695 20.7922Z" fill="white"/>
<path d="M109.448 13.7902C109.448 11.3005 108.112 10.0557 106.088 10.0557C104.025 10.0557 102.629 11.3589 102.629 13.9847V20.6756H100.625V13.8096C100.625 11.32 99.289 10.0752 97.2651 10.0752C95.2019 10.0752 93.8067 11.3783 93.8067 14.0041V20.695H91.7632V8.51913H93.8067V10.2697C94.6124 8.98594 96.0664 8.30518 97.6777 8.30518C99.682 8.30518 101.372 9.19989 102.177 11.0088C102.885 9.25824 104.634 8.30518 106.52 8.30518C109.31 8.30518 111.491 10.0363 111.491 13.5179V20.6756H109.487V13.7902H109.448Z" fill="white"/>
<path d="M119.862 8.30518C122.142 8.30518 123.713 9.45274 124.421 10.717V8.51913H126.484V20.6561H124.421V18.3999C123.674 19.7031 122.102 20.8506 119.843 20.8506C116.581 20.8506 114.046 18.3026 114.046 14.5293C114.046 10.7559 116.561 8.30518 119.862 8.30518ZM120.255 10.0557C118.015 10.0557 116.109 11.6701 116.109 14.5293C116.109 17.3885 118.015 19.0612 120.255 19.0612C122.495 19.0612 124.421 17.4079 124.421 14.5487C124.421 11.7479 122.495 10.0557 120.255 10.0557Z" fill="white"/>
<path d="M131.966 20.6366H129.923V8.51905H131.966V10.4835C132.654 9.14146 133.971 8.28564 135.936 8.28564V10.3668H135.405C133.46 10.3668 131.986 11.2226 131.986 14.0429L131.966 20.6366Z" fill="white"/>
<path d="M138.726 10.1722H137.134V8.51895H138.726V5.4458H140.769V8.51895H143.972V10.1722H140.769V17.3299C140.769 18.5164 141.221 18.9443 142.479 18.9443H143.972V20.6559H142.145C139.983 20.6559 138.746 19.7612 138.746 17.3299V10.1722H138.726Z" fill="white"/>
<path d="M58.9485 0H18.7651V39.7954H58.9681V0H58.9485ZM31.5766 27.1137V12.7011H46.137V27.1137H31.5766Z" fill="white"/>
<path d="M14.5603 12.7012H0V27.1139H14.5603V12.7012Z" fill="white"/>
</g>
<defs>
<clipPath id="clip0_386_375">
<rect width="194" height="46" fill="white"/>
</clipPath>
</defs>
</svg>
