<svg width="28" height="28" viewBox="0 0 28 28" fill="none" xmlns="http://www.w3.org/2000/svg">
<g clip-path="url(#clip0_386_363)">
<path d="M14 16.7705C15.933 16.7705 17.5 15.2035 17.5 13.2705C17.5 11.3375 15.933 9.77051 14 9.77051C12.067 9.77051 10.5 11.3375 10.5 13.2705C10.5 15.2035 12.067 16.7705 14 16.7705Z" fill="white"/>
<path d="M18.8125 2.33301H9.1875C7.56305 2.33301 6.00513 2.97832 4.85647 4.12698C3.70781 5.27564 3.0625 6.83356 3.0625 8.45801V18.083C3.0625 19.7075 3.70781 21.2654 4.85647 22.414C6.00513 23.5627 7.56305 24.208 9.1875 24.208H18.8125C20.437 24.208 21.9949 23.5627 23.1435 22.414C24.2922 21.2654 24.9375 19.7075 24.9375 18.083V8.45801C24.9375 6.83356 24.2922 5.27564 23.1435 4.12698C21.9949 2.97832 20.437 2.33301 18.8125 2.33301ZM14 18.5205C12.9616 18.5205 11.9466 18.2126 11.0833 17.6357C10.2199 17.0588 9.54699 16.2389 9.14963 15.2796C8.75227 14.3203 8.64831 13.2647 8.85088 12.2463C9.05345 11.2279 9.55346 10.2924 10.2877 9.5582C11.0219 8.82397 11.9574 8.32396 12.9758 8.12139C13.9942 7.91881 15.0498 8.02278 16.0091 8.42014C16.9684 8.8175 17.7883 9.49041 18.3652 10.3538C18.9421 11.2171 19.25 12.2322 19.25 13.2705C19.25 14.6629 18.6969 15.9983 17.7123 16.9828C16.7277 17.9674 15.3924 18.5205 14 18.5205ZM19.6875 8.89551C19.4279 8.89551 19.1742 8.81853 18.9583 8.67431C18.7425 8.53009 18.5742 8.32511 18.4749 8.08528C18.3756 7.84545 18.3496 7.58155 18.4002 7.32695C18.4509 7.07235 18.5759 6.83849 18.7594 6.65493C18.943 6.47137 19.1768 6.34637 19.4314 6.29573C19.686 6.24508 19.9499 6.27108 20.1898 6.37042C20.4296 6.46976 20.6346 6.63798 20.7788 6.85382C20.923 7.06966 21 7.32342 21 7.58301C21 7.9311 20.8617 8.26494 20.6156 8.51109C20.3694 8.75723 20.0356 8.89551 19.6875 8.89551Z" fill="white"/>
</g>
<defs>
<clipPath id="clip0_386_363">
<rect width="28" height="28" fill="white"/>
</clipPath>
</defs>
</svg>
