<svg width="28" height="28" viewBox="0 0 28 28" fill="none" xmlns="http://www.w3.org/2000/svg">
<g clip-path="url(#clip0_386_354)">
<path d="M23.1875 2.33301H4.8125C4.34837 2.33301 3.90325 2.51738 3.57506 2.84557C3.24687 3.17376 3.0625 3.61888 3.0625 4.08301V22.458C3.0625 22.9221 3.24687 23.3673 3.57506 23.6954C3.90325 24.0236 4.34837 24.208 4.8125 24.208H23.1875C23.6516 24.208 24.0967 24.0236 24.4249 23.6954C24.7531 23.3673 24.9375 22.9221 24.9375 22.458V4.08301C24.9375 3.61888 24.7531 3.17376 24.4249 2.84557C24.0967 2.51738 23.6516 2.33301 23.1875 2.33301ZM10.5 18.5205C10.5 18.7526 10.4078 18.9751 10.2437 19.1392C10.0796 19.3033 9.85706 19.3955 9.625 19.3955C9.39294 19.3955 9.17038 19.3033 9.00628 19.1392C8.84219 18.9751 8.75 18.7526 8.75 18.5205V11.5205C8.75 11.2884 8.84219 11.0659 9.00628 10.9018C9.17038 10.7377 9.39294 10.6455 9.625 10.6455C9.85706 10.6455 10.0796 10.7377 10.2437 10.9018C10.4078 11.0659 10.5 11.2884 10.5 11.5205V18.5205ZM9.625 9.33301C9.36541 9.33301 9.11165 9.25603 8.89581 9.11181C8.67998 8.96759 8.51175 8.76261 8.41241 8.52278C8.31307 8.28295 8.28708 8.01905 8.33772 7.76445C8.38836 7.50985 8.51337 7.27599 8.69692 7.09243C8.88048 6.90887 9.11434 6.78387 9.36894 6.73323C9.62354 6.68258 9.88744 6.70858 10.1273 6.80792C10.3671 6.90726 10.5721 7.07548 10.7163 7.29132C10.8605 7.50716 10.9375 7.76092 10.9375 8.02051C10.9375 8.3686 10.7992 8.70244 10.5531 8.94859C10.3069 9.19473 9.9731 9.33301 9.625 9.33301ZM20.125 18.5205C20.125 18.7526 20.0328 18.9751 19.8687 19.1392C19.7046 19.3033 19.4821 19.3955 19.25 19.3955C19.0179 19.3955 18.7954 19.3033 18.6313 19.1392C18.4672 18.9751 18.375 18.7526 18.375 18.5205V14.583C18.375 14.0028 18.1445 13.4464 17.7343 13.0362C17.3241 12.626 16.7677 12.3955 16.1875 12.3955C15.6073 12.3955 15.0509 12.626 14.6407 13.0362C14.2305 13.4464 14 14.0028 14 14.583V18.5205C14 18.7526 13.9078 18.9751 13.7437 19.1392C13.5796 19.3033 13.3571 19.3955 13.125 19.3955C12.8929 19.3955 12.6704 19.3033 12.5063 19.1392C12.3422 18.9751 12.25 18.7526 12.25 18.5205V11.5205C12.2494 11.3052 12.3282 11.0972 12.4714 10.9363C12.6145 10.7755 12.812 10.673 13.026 10.6487C13.2399 10.6243 13.4553 10.6797 13.631 10.8042C13.8067 10.9287 13.9303 11.1137 13.9781 11.3236C14.5702 10.9223 15.2604 10.6898 15.9746 10.6511C16.6889 10.6124 17.4001 10.7691 18.0321 11.1042C18.664 11.4392 19.1927 11.9401 19.5615 12.553C19.9302 13.166 20.125 13.8677 20.125 14.583V18.5205Z" fill="white"/>
</g>
<defs>
<clipPath id="clip0_386_354">
<rect width="28" height="28" fill="white"/>
</clipPath>
</defs>
</svg>
