<svg width="28" height="28" viewBox="0 0 28 28" fill="none" xmlns="http://www.w3.org/2000/svg">
<g clip-path="url(#clip0_386_360)">
<path d="M25.6261 7.00713C25.5255 6.60389 25.3287 6.23104 25.0525 5.92054C24.7763 5.61003 24.4289 5.37113 24.0401 5.22432C20.2995 3.78057 14.3276 3.79151 13.9995 3.79151C13.6714 3.79151 7.69951 3.78057 3.95889 5.22432C3.5701 5.37113 3.22272 5.61003 2.9465 5.92054C2.67029 6.23104 2.47348 6.60389 2.37295 7.00713C2.08857 8.08994 1.74951 10.0806 1.74951 13.3728C1.74951 16.6649 2.08857 18.6556 2.37295 19.7384C2.47348 20.1416 2.67029 20.5145 2.9465 20.825C3.22272 21.1355 3.5701 21.3744 3.95889 21.5212C7.54639 22.9103 13.1683 22.954 13.9229 22.954H14.0761C14.8308 22.954 20.4526 22.9103 24.0401 21.5212C24.4289 21.3744 24.7763 21.1355 25.0525 20.825C25.3287 20.5145 25.5255 20.1416 25.6261 19.7384C25.9104 18.6556 26.2495 16.6649 26.2495 13.3728C26.2495 10.0806 25.9104 8.08994 25.6261 7.00713ZM17.7401 13.7337L12.4901 17.2337C12.4205 17.2849 12.3359 17.3118 12.2495 17.3103C12.1771 17.3076 12.1061 17.2889 12.0417 17.2556C11.9718 17.2192 11.9133 17.1642 11.8728 17.0966C11.8322 17.029 11.8112 16.9516 11.812 16.8728V9.87276C11.8112 9.79396 11.8322 9.71648 11.8728 9.6489C11.9133 9.58133 11.9718 9.52631 12.0417 9.48994C12.1114 9.45273 12.19 9.43512 12.2689 9.43897C12.3479 9.44282 12.4243 9.468 12.4901 9.51182L17.7401 13.0118C17.8011 13.0502 17.8514 13.1035 17.8863 13.1666C17.9211 13.2297 17.9394 13.3007 17.9394 13.3728C17.9394 13.4449 17.9211 13.5158 17.8863 13.5789C17.8514 13.642 17.8011 13.6953 17.7401 13.7337Z" fill="white"/>
</g>
<defs>
<clipPath id="clip0_386_360">
<rect width="28" height="28" fill="white"/>
</clipPath>
</defs>
</svg>
