<svg width="28" height="28" viewBox="0 0 28 28" fill="none" xmlns="http://www.w3.org/2000/svg">
<g clip-path="url(#clip0_386_357)">
<path d="M25.375 13.349C25.3693 16.128 24.3494 18.8095 22.5067 20.8899C20.664 22.9702 18.1253 24.3063 15.3672 24.6474C15.3056 24.6534 15.2435 24.6467 15.1847 24.6276C15.1259 24.6084 15.0716 24.5774 15.0254 24.5363C14.9792 24.4952 14.942 24.445 14.9161 24.3888C14.8902 24.3326 14.8762 24.2717 14.875 24.2099V15.974H17.5C17.6196 15.9742 17.7381 15.9499 17.848 15.9025C17.9579 15.8552 18.0569 15.7858 18.1389 15.6986C18.2209 15.6115 18.2841 15.5085 18.3248 15.3959C18.3654 15.2834 18.3825 15.1637 18.375 15.0443C18.3556 14.818 18.2512 14.6075 18.0827 14.4553C17.9142 14.303 17.6942 14.2204 17.4672 14.224H14.875V11.599C14.875 11.1348 15.0594 10.6897 15.3875 10.3615C15.7157 10.0333 16.1609 9.84895 16.625 9.84895H18.375C18.4946 9.84919 18.6131 9.82488 18.723 9.77752C18.8329 9.73017 18.9319 9.66078 19.0139 9.57365C19.0959 9.48651 19.1591 9.38349 19.1998 9.27093C19.2404 9.15838 19.2575 9.03869 19.25 8.91927C19.2306 8.69301 19.1262 8.48252 18.9577 8.33027C18.7892 8.17802 18.5692 8.09536 18.3422 8.09895H16.625C15.6967 8.09895 14.8065 8.4677 14.1501 9.12408C13.4937 9.78046 13.125 10.6707 13.125 11.599V14.224H10.5C10.3803 14.2237 10.2619 14.248 10.152 14.2954C10.0421 14.3427 9.94311 14.4121 9.8611 14.4993C9.77909 14.5864 9.71583 14.6894 9.67521 14.802C9.6346 14.9145 9.61751 15.0342 9.62499 15.1536C9.64434 15.3799 9.74881 15.5904 9.91729 15.7426C10.0858 15.8949 10.3057 15.9775 10.5328 15.974H13.125V24.2099C13.1253 24.2712 13.1127 24.3319 13.088 24.3881C13.0634 24.4442 13.0272 24.4946 12.9818 24.5358C12.9364 24.5771 12.8829 24.6083 12.8246 24.6275C12.7664 24.6468 12.7048 24.6535 12.6437 24.6474C6.86874 23.9474 2.40624 18.9271 2.63592 12.9224C2.76486 9.957 4.04779 7.15946 6.21088 5.12691C8.37397 3.09437 11.2459 1.98784 14.2135 2.04351C17.1812 2.09918 20.0096 3.31264 22.0949 5.42488C24.1802 7.53712 25.3574 10.3808 25.375 13.349Z" fill="white"/>
</g>
<defs>
<clipPath id="clip0_386_357">
<rect width="28" height="28" fill="white"/>
</clipPath>
</defs>
</svg>
