<svg width="28" height="28" viewBox="0 0 28 28" fill="none" xmlns="http://www.w3.org/2000/svg">
<g clip-path="url(#clip0_386_367)">
<path d="M25.375 10.0625V14.4375C25.375 14.6696 25.2828 14.8921 25.1187 15.0562C24.9546 15.2203 24.7321 15.3125 24.5 15.3125C22.6722 15.3173 20.8706 14.8782 19.25 14.0328V17.9375C19.2502 19.5189 18.7993 21.0676 17.9502 22.4017C17.1011 23.7358 15.889 24.8001 14.4563 25.4695C13.0236 26.1389 11.4296 26.3858 9.86151 26.1811C8.2934 25.9764 6.81622 25.3286 5.60335 24.3138C4.39048 23.299 3.49225 21.9593 3.01409 20.4519C2.53593 18.9445 2.49767 17.332 2.90382 15.8037C3.30997 14.2753 4.14366 12.8945 5.30705 11.8233C6.47044 10.7522 7.91524 10.0351 9.47187 9.75625C9.59677 9.73384 9.72505 9.73886 9.84781 9.77097C9.97057 9.80308 10.0849 9.8615 10.1828 9.94219C10.2838 10.0237 10.3648 10.1271 10.4198 10.2446C10.4747 10.3621 10.5022 10.4906 10.5 10.6203V15.1703C10.5005 15.336 10.4533 15.4983 10.3641 15.6379C10.2749 15.7776 10.1474 15.8886 9.99687 15.9578C9.64376 16.126 9.34219 16.3858 9.12359 16.7101C8.90498 17.0344 8.77733 17.4114 8.75392 17.8019C8.73052 18.1923 8.81222 18.5818 8.99052 18.93C9.16882 19.2781 9.4372 19.572 9.76769 19.7812C10.0982 19.9903 10.4787 20.1071 10.8697 20.1192C11.2606 20.1313 11.6476 20.0384 11.9905 19.8502C12.3333 19.6619 12.6194 19.3851 12.8189 19.0488C13.0185 18.7124 13.1241 18.3286 13.125 17.9375V3.9375C13.125 3.70544 13.2172 3.48288 13.3813 3.31878C13.5454 3.15469 13.7679 3.0625 14 3.0625H18.375C18.6071 3.0625 18.8296 3.15469 18.9937 3.31878C19.1578 3.48288 19.25 3.70544 19.25 3.9375C19.25 5.32989 19.8031 6.66524 20.7877 7.64981C21.7723 8.63438 23.1076 9.1875 24.5 9.1875C24.7321 9.1875 24.9546 9.27969 25.1187 9.44378C25.2828 9.60788 25.375 9.83044 25.375 10.0625Z" fill="white"/>
</g>
<defs>
<clipPath id="clip0_386_367">
<rect width="28" height="28" fill="white"/>
</clipPath>
</defs>
</svg>
