<?xml version="1.0" encoding="utf-8"?>
<!-- Generator: Adobe Illustrator 26.5.0, SVG Export Plug-In . SVG Version: 6.00 Build 0)  -->
<svg version="1.1" id="Layer_1" xmlns="http://www.w3.org/2000/svg" xmlns:xlink="http://www.w3.org/1999/xlink" x="0px" y="0px"
	 viewBox="0 0 24 24" style="enable-background:new 0 0 24 24;" xml:space="preserve">
<style type="text/css">
	.st0{fill:#0383DB;}
</style>
<path class="st0" d="M22.06,10.4h-6l4.24-4.24c0.66-0.66,0.66-1.72,0-2.38c-0.66-0.66-1.72-0.66-2.38,0l-4.24,4.24v-6
	c0-0.93-0.75-1.68-1.68-1.68c-0.93,0-1.68,0.75-1.68,1.68v6L6.08,3.78c-0.66-0.66-1.72-0.66-2.38,0c-0.66,0.66-0.66,1.72,0,2.38
	l4.24,4.24h-6c-0.93,0-1.68,0.75-1.68,1.68c0,0.93,0.75,1.68,1.68,1.68h6L3.7,18.01c-0.66,0.66-0.66,1.72,0,2.38
	c0.33,0.33,0.76,0.49,1.19,0.49c0.43,0,0.86-0.16,1.19-0.49l4.24-4.24v6c0,0.93,0.75,1.68,1.68,1.68c0.93,0,1.68-0.75,1.68-1.68v-6
	l4.24,4.24c0.33,0.33,0.76,0.49,1.19,0.49c0.43,0,0.86-0.16,1.19-0.49c0.66-0.66,0.66-1.72,0-2.38l-4.24-4.24h6
	c0.93,0,1.68-0.75,1.68-1.68C23.74,11.15,22.99,10.4,22.06,10.4z"/>
</svg>
