<svg width="13" height="16" viewBox="0 0 13 16" fill="none" xmlns="http://www.w3.org/2000/svg">
<path d="M12.3336 7.03627L2.2086 0.8558C2.03994 0.748923 1.84517 0.690433 1.64554 0.686713C1.4459 0.682993 1.24909 0.734187 1.07657 0.834706C0.901497 0.930758 0.755553 1.07222 0.654091 1.24421C0.552629 1.4162 0.4994 1.61236 0.500005 1.81205V14.1871C0.4994 14.3867 0.552629 14.5829 0.654091 14.7549C0.755553 14.9269 0.901497 15.0683 1.07657 15.1644C1.24909 15.2649 1.4459 15.3161 1.64554 15.3124C1.84517 15.3087 2.03994 15.2502 2.2086 15.1433L12.3336 8.96283C12.4996 8.86272 12.6368 8.72143 12.7321 8.55266C12.8274 8.38389 12.8775 8.19336 12.8775 7.99955C12.8775 7.80574 12.8274 7.61521 12.7321 7.44644C12.6368 7.27768 12.4996 7.13639 12.3336 7.03627Z" fill="#0283DB"/>
</svg>
